<svg width="347" height="98" viewBox="0 0 347 98" fill="none" xmlns="http://www.w3.org/2000/svg">
<g clip-path="url(#clip0_306_3012)">
<path fill-rule="evenodd" clip-rule="evenodd" d="M75.9087 96.7277H53.5951V79.7522H22.8472C17.6159 79.7522 13.2386 75.375 13.2386 70.1436V42.9189L3.84338 35.9794C1.38795 34.1644 0 31.3885 0 28.2924V10.4629H19.3243V22.7406H34.9118V10.4629H54.236V22.7406H69.8235V10.4629H89.1478V28.2924C89.1478 31.3885 87.7598 34.1644 85.1976 35.9794L75.9092 42.9189V44.8408V79.7525V96.7277H75.9087ZM53.5951 60.3214V44.8408V42.1717H35.5519V60.3217L53.5951 60.3214Z" fill="#AE50FD"/>
<path fill-rule="evenodd" clip-rule="evenodd" d="M256.98 10.0357C256.98 7.15293 257.941 4.8043 259.863 2.88248C261.784 0.960915 264.133 0 267.016 0C269.899 0 272.247 0.960915 274.169 2.88248C276.091 4.8043 277.052 7.15293 277.052 10.0357C277.052 12.9181 276.091 15.267 274.169 17.1888C272.247 19.1104 269.899 19.9647 267.016 19.9647C264.133 19.9647 261.784 19.1106 259.863 17.1888C257.941 15.267 256.98 12.9184 256.98 10.0357Z" fill="#6B758B"/>
<path fill-rule="evenodd" clip-rule="evenodd" d="M245.129 25.4097H227.086V55.8374C227.086 63.631 223.563 67.5815 216.516 67.5815C209.577 67.5815 206.053 63.6312 206.053 55.8374V25.4097H188.01V59.2537C188.01 63.4176 188.757 67.0476 190.145 70.1437C191.64 73.2398 193.668 75.8021 196.124 77.9373C198.686 79.9659 201.782 81.4605 205.199 82.5282C208.722 83.5959 212.566 84.1295 216.516 84.1295C220.573 84.1295 224.417 83.5957 227.94 82.5282C231.356 81.4607 234.452 79.9659 237.015 77.9373C239.47 75.8021 241.499 73.2398 242.994 70.1437C244.382 67.0476 245.129 63.4176 245.129 59.2537L245.129 25.4097Z" fill="#6B758B"/>
<path fill-rule="evenodd" clip-rule="evenodd" d="M177.014 39.2888C177.014 31.6017 170.715 25.4095 163.135 25.4095H143.17C139.006 25.4095 135.27 26.1567 132.173 27.5447C129.077 29.0395 126.515 31.0679 124.486 33.5235C122.458 36.0858 120.856 39.1819 119.789 42.7053C118.828 46.1217 118.294 49.9653 118.294 54.0221C118.294 57.9723 118.828 61.816 119.789 65.3391C120.856 68.8623 122.458 71.8516 124.486 74.4141C126.515 76.8698 129.077 78.8982 132.173 80.393C135.27 81.7809 139.006 82.5282 143.17 82.5282H159.078V97.5818H177.014V39.2888ZM159.078 64.4851H146.479C138.792 64.4851 136.977 60.9619 136.977 54.0221C136.977 46.9758 138.792 43.4526 146.479 43.4526H159.078V64.4851Z" fill="#6B758B"/>
<path fill-rule="evenodd" clip-rule="evenodd" d="M276.091 25.4097H258.047V82.5282H276.091V25.4097Z" fill="#6B758B"/>
<path fill-rule="evenodd" clip-rule="evenodd" d="M287.621 39.2888C287.621 31.6017 293.92 25.4095 301.5 25.4095H321.465C325.629 25.4095 329.366 26.1567 332.462 27.5447C335.558 29.0395 338.12 31.0679 340.149 33.5235C342.177 36.0858 343.779 39.1819 344.847 42.7053C345.807 46.1217 346.341 49.9653 346.341 54.0221C346.341 57.9723 345.807 61.816 344.847 65.3391C343.779 68.8623 342.177 71.8516 340.149 74.4141C338.12 76.8698 335.558 78.8982 332.462 80.393C329.366 81.7809 325.629 82.5282 321.465 82.5282H305.557V97.5818H287.621V39.2888ZM305.557 64.4851H318.155C325.843 64.4851 327.658 60.9619 327.658 54.0221C327.658 46.9758 325.843 43.4526 318.155 43.4526H305.557V64.4851Z" fill="#6B758B"/>
</g>
<defs>
<clipPath id="clip0_306_3012">
<rect width="346.34" height="97.58" fill="white"/>
</clipPath>
</defs>
</svg>
