<svg width="158" height="44" viewBox="0 0 158 44" fill="none" xmlns="http://www.w3.org/2000/svg">
<path fill-rule="evenodd" clip-rule="evenodd" d="M35.1435 43.6149H25.0822V35.9606H11.2179C8.85907 35.9606 6.88535 33.9869 6.88535 31.628V19.3523L2.64901 16.2233C1.54185 15.4049 0.916016 14.1532 0.916016 12.7572V4.71777H9.6294V10.2538H16.6579V4.71777H25.3712V10.2538H32.3997V4.71777H41.1131V12.7572C41.1131 14.1532 40.4872 15.4049 39.3319 16.2233L35.1437 19.3523V20.2189V35.9607V43.6149H35.1435ZM25.0822 27.1992V20.2189V19.0154H16.9465V27.1993L25.0822 27.1992Z" fill="#AE50FD"/>
<path fill-rule="evenodd" clip-rule="evenodd" d="M116.79 4.52512C116.79 3.22528 117.223 2.16628 118.09 1.29972C118.956 0.43328 120.015 0 121.315 0C122.615 0 123.674 0.43328 124.541 1.29972C125.407 2.16628 125.84 3.22528 125.84 4.52512C125.84 5.82484 125.407 6.88395 124.541 7.7505C123.674 8.61694 122.615 9.00218 121.315 9.00218C120.015 9.00218 118.956 8.61706 118.09 7.7505C117.223 6.88395 116.79 5.82496 116.79 4.52512Z" fill="white"/>
<path fill-rule="evenodd" clip-rule="evenodd" d="M111.446 11.4573H103.311V25.1773C103.311 28.6914 101.722 30.4727 98.5446 30.4727C95.4156 30.4727 93.8269 28.6916 93.8269 25.1773V11.4573H85.6911V26.7177C85.6911 28.5952 86.0281 30.232 86.6539 31.6281C87.3279 33.0241 88.2425 34.1794 89.3498 35.1422C90.5051 36.0569 91.9012 36.7308 93.4418 37.2123C95.0304 37.6937 96.7635 37.9343 98.5446 37.9343C100.374 37.9343 102.107 37.6936 103.696 37.2123C105.236 36.7309 106.632 36.0569 107.788 35.1422C108.895 34.1794 109.809 33.0241 110.483 31.6281C111.109 30.232 111.446 28.5952 111.446 26.7177L111.446 11.4573Z" fill="white"/>
<path fill-rule="evenodd" clip-rule="evenodd" d="M80.733 17.7154C80.733 14.2493 77.8927 11.4572 74.4748 11.4572H65.4726C63.5951 11.4572 61.9103 11.7942 60.5142 12.42C59.1181 13.094 57.9628 14.0086 57.0481 15.1159C56.1335 16.2712 55.4113 17.6673 54.9299 19.256C54.4966 20.7964 54.2559 22.5296 54.2559 24.3588C54.2559 26.1399 54.4966 27.8731 54.9299 29.4617C55.4113 31.0503 56.1334 32.3982 57.0481 33.5536C57.9627 34.6609 59.1181 35.5755 60.5142 36.2495C61.9103 36.8753 63.5952 37.2123 65.4726 37.2123H72.6454V44H80.733V17.7154ZM72.6454 29.0766H66.9649C63.4987 29.0766 62.6804 27.4879 62.6804 24.3588C62.6804 21.1816 63.4987 19.593 66.9649 19.593H72.6454V29.0766Z" fill="white"/>
<path fill-rule="evenodd" clip-rule="evenodd" d="M125.407 11.4573H117.271V37.2123H125.407V11.4573Z" fill="white"/>
<path fill-rule="evenodd" clip-rule="evenodd" d="M130.606 17.7154C130.606 14.2493 133.446 11.4572 136.864 11.4572H145.866C147.744 11.4572 149.429 11.7942 150.825 12.42C152.221 13.094 153.376 14.0086 154.291 15.1159C155.206 16.2712 155.928 17.6673 156.409 19.256C156.843 20.7964 157.083 22.5296 157.083 24.3588C157.083 26.1399 156.843 27.8731 156.409 29.4617C155.928 31.0503 155.206 32.3982 154.291 33.5536C153.376 34.6609 152.221 35.5755 150.825 36.2495C149.429 36.8753 147.744 37.2123 145.866 37.2123H138.694V44H130.606V17.7154ZM138.694 29.0766H144.374C147.84 29.0766 148.659 27.4879 148.659 24.3588C148.659 21.1816 147.84 19.593 144.374 19.593H138.694V29.0766Z" fill="white"/>
</svg>
