<svg width="135" height="86" viewBox="0 0 135 86" fill="none" xmlns="http://www.w3.org/2000/svg">
<path d="M129.876 1.99225C140.979 16.5033 118.2 47.7413 112.546 50.0475C85.9896 68.3289 66.6382 62.2297 63.4042 39.7777C62.6293 34.3983 68.2284 27.8537 72.8807 25.1945C80.2403 20.9877 86.1381 23.0666 90.1114 28.8206C97.3292 39.2732 96.9789 59.8917 84.1006 70.8698C63.9472 88.0497 39.5982 85.9331 21.9956 76.1099C18.4893 74.1532 -4.08588 54.3708 12.1992 59.7296C15.1548 60.7022 23.8129 64.0179 20.7633 63.264C15.707 62.0139 12.9627 61.0696 8.79678 57.9726C7.9697 57.3578 4.2126 53.3841 3.99826 56.8084C3.5594 63.8199 2.61136 70.8808 2.32394 77.8785" stroke="#14171F" stroke-width="3" stroke-linecap="round"/>
</svg>
