<svg width="64" height="64" viewBox="0 0 64 64" fill="none" xmlns="http://www.w3.org/2000/svg">
<g clip-path="url(#clip0_377_3018)">
<path d="M48.7819 3.19074C46.7869 1.39191 29.3225 14.5907 27.8292 13.4983C26.3358 12.406 16.0207 2.48419 14.4458 3.70882C12.8709 4.93344 19.4163 24.9996 18.3647 26.4373C17.3131 27.875 3.99387 39.3525 4.16553 41.0908C4.33719 42.8291 24.1104 34.7144 24.9589 35.7594C25.8074 36.8045 29.2599 60.6348 30.6557 60.4675C32.0515 60.3002 33.9337 40.2022 35.0662 38.654C36.1987 37.1057 58.628 37.8941 60.4027 37.3248C62.1773 36.7556 46.7428 27.3331 44.5307 25.715C42.3186 24.0969 50.7769 4.98956 48.7819 3.19074Z" stroke="black" stroke-width="5" stroke-linecap="round"/>
</g>
<defs>
<clipPath id="clip0_377_3018">
<rect width="64" height="64" fill="white"/>
</clipPath>
</defs>
</svg>
