<svg width="146" height="92" viewBox="0 0 146 92" fill="none" xmlns="http://www.w3.org/2000/svg">
<g clip-path="url(#clip0_377_3020)">
<path d="M132.876 4.99216C143.98 19.5032 121.2 50.7412 115.546 53.0474C88.9899 71.3288 69.6385 65.2296 66.4045 42.7776C65.6296 37.3981 71.2287 30.8536 75.881 28.1944C83.2405 23.9876 89.1383 26.0665 93.1116 31.8205C100.329 42.2732 99.9792 62.8916 87.1009 73.8697C66.9475 91.0496 42.5985 88.933 24.9958 79.1098C21.4896 77.1531 -1.08564 57.3707 15.1995 62.7295C18.1551 63.7021 26.8131 67.0178 23.7635 66.2639C18.7072 65.0138 15.963 64.0695 11.797 60.9725C10.97 60.3576 7.21284 56.384 6.99851 59.8083C6.55965 66.8197 5.61161 73.8807 5.32419 80.8784" stroke="#000000" stroke-width="3" stroke-linecap="round"/>
</g>
<defs>
<clipPath id="clip0_377_3020">
<rect width="146" height="92" fill="white"/>
</clipPath>
</defs>
</svg>
